<?xml version="1.0" encoding="UTF-8" standalone="no"?>
<svg width="224px" height="224px" viewBox="0 0 224 224" version="1.1" xmlns="http://www.w3.org/2000/svg" xmlns:xlink="http://www.w3.org/1999/xlink">
    <!-- Generator: Sketch 3.8.3 (29802) - http://www.bohemiancoding.com/sketch -->
    <title>Artboard 2</title>
    <desc>Created with Sketch.</desc>
    <defs>
        <circle id="path-1" cx="104" cy="152" r="9"></circle>
        <filter x="-50%" y="-50%" width="200%" height="200%" filterUnits="objectBoundingBox" id="filter-2">
            <feOffset dx="0" dy="1" in="SourceAlpha" result="shadowOffsetOuter1"></feOffset>
            <feColorMatrix values="0 0 0 0 0   0 0 0 0 0   0 0 0 0 0  0 0 0 0.635388361 0" type="matrix" in="shadowOffsetOuter1"></feColorMatrix>
        </filter>
    </defs>
    <g id="Page-1" stroke="none" stroke-width="1" fill="none" fill-rule="evenodd">
        <g id="Artboard-2">
            <g id="Group-6" transform="translate(9.000000, 18.000000)">
                <g id="Considerit-Copy-9-+-Path-Copy-9-Copy-Copy-Copy-Copy-Copy-Copy-Copy-Copy-Copy" transform="translate(13.000000, 0.000000)">
                    <path d="M11.3507681,30 C14.9890095,30 17.4417571,29.4981433 20.2215371,27.0344857 C20.5076909,26.7731886 20.5894491,26.2879227 20.2624162,26.0266257 L18.7907673,22.9823086 C18.5454926,22.7583398 18.0958224,22.7210116 17.7687894,22.9823086 C16.0518665,24.2514656 13.9670316,25.110013 11.5142846,25.1100129 C8.97081559,25.1100129 5.76395526,23.3668971 5.76395547,18.0425507 C5.76395577,12.7182043 9.59361077,10.8478807 11.3507678,10.8478804 C13.9588631,10.8478803 15.8293806,12.0947629 17.1452835,13.1027928 C17.4723164,13.4014179 17.8811076,13.4014179 18.1672614,13.1027928 L20.2624162,10.4524944 C20.5894491,10.1538692 20.5894491,9.70593145 20.2215371,9.40730628 C17.4417571,7.1302894 15.4795589,6.23441397 11.3507681,6.23441397 C5.1961902,6.23441397 0,10.9626457 0,18.1545351 C0,24.9606998 5.1961902,30.0000001 11.3507681,30 Z M23.7454127,20.5286783 C23.7454127,25.6907731 27.8755161,30 32.9483607,30 C38.0212052,30 42.1513086,25.6907731 42.1513086,20.5286783 C42.1513086,15.4563591 38.0212052,11.1471322 32.9483607,11.1471322 C27.8755161,11.1471322 23.7454127,15.4563591 23.7454127,20.5286783 C23.7454127,20.5286783 23.7454127,15.4563591 23.7454127,20.5286783 Z M28.6386874,20.5286783 C28.6386874,18.0149626 30.5241695,15.9950125 32.9483607,15.9950125 C35.3276594,15.9950125 37.2580339,18.0149626 37.2580339,20.5286783 C37.2580339,23.0872818 35.3276594,25.1521197 32.9483607,25.1521197 C30.5241695,25.1521197 28.6386874,23.0872818 28.6386874,20.5286783 C28.6386874,20.5286783 28.6386874,23.0872818 28.6386874,20.5286783 Z M46.1467348,28.6982544 C46.1467348,29.1471322 46.5507667,29.5511222 46.999691,29.5511222 L50.3217308,29.5511222 C51.1746869,29.5511222 51.4440415,29.3266833 51.4440415,28.6982544 L51.4440415,18.8229426 C51.8929658,17.6109726 53.3295235,15.9950125 55.6639298,15.9950125 C57.8187665,15.9950125 59.030862,17.4763092 59.030862,19.8104738 L59.030862,28.6982544 C59.030862,29.1471322 59.3900015,29.5511222 59.8838182,29.5511222 L63.5649974,29.5511222 C64.0139217,29.5511222 64.4179536,29.1471322 64.4179536,28.6982544 L64.4179536,20.0798005 C64.4179536,15.4114713 62.1284397,11.1471322 56.4271011,11.1471322 C52.9703841,11.1471322 50.7706551,13.0773067 50.0972686,13.7955112 L49.4687746,12.1346633 C49.3340973,11.8204489 49.1096352,11.59601 48.7056033,11.59601 L46.999691,11.59601 C46.5507667,11.59601 46.1467348,11.9551122 46.1467348,12.4488778 C46.1467348,12.4488778 46.1467348,11.9551122 46.1467348,12.4488778 L46.1467348,28.6982544 Z M68.7276268,28.3391521 C69.6703678,29.0573566 71.7354195,30 74.6983198,30 C79.2324552,30 81.8362161,27.4862843 81.8362161,24.5236908 C81.8362161,21.0224439 79.2324552,19.5411471 75.7757381,18.1945137 C74.1147183,17.521197 73.3066545,17.2518703 73.3066545,16.4438903 C73.3066545,15.8603491 73.7555788,15.4114713 74.8329971,15.4114713 C76.5389094,15.4114713 78.5590688,16.3541147 78.5590688,16.3541147 C78.9182082,16.4887781 79.4120249,16.4438903 79.6364871,16.0399002 L80.7587978,13.7506234 C80.9832599,13.3017456 80.7587978,12.80798 80.3547659,12.5386534 C79.4120249,11.9102244 77.4816505,11.1471322 74.8329971,11.1471322 C70.2539694,11.1471322 68.23381,13.7057357 68.23381,16.4438903 C68.23381,19.1820449 69.8499375,21.0224439 73.3066545,22.3690773 C75.6859533,23.3117207 76.3144473,23.8054863 76.3144473,24.6134663 C76.3144473,25.3765586 75.6859533,25.7356608 74.7881047,25.7356608 C72.723053,25.7356608 70.7028936,24.6583541 70.7028936,24.6583541 C70.2988618,24.4339152 69.8499375,24.5236908 69.6703678,24.9725686 L68.4582722,27.3965087 C68.2787025,27.755611 68.4582722,28.1147132 68.7276268,28.3391521 C68.7276268,28.3391521 68.4582722,28.1147132 68.7276268,28.3391521 Z M85.7867499,28.6982544 C85.7867499,29.1471322 86.1907817,29.5511222 86.639706,29.5511222 L90.3657777,29.5511222 C90.8147019,29.5511222 91.2187338,29.1471322 91.2187338,28.6982544 L91.2187338,12.4488778 C91.2187338,11.9551122 90.8147019,11.59601 90.3657777,11.59601 L86.639706,11.59601 C86.1907817,11.59601 85.7867499,11.9551122 85.7867499,12.4488778 C85.7867499,12.4488778 85.7867499,11.9551122 85.7867499,12.4488778 L85.7867499,28.6982544 Z M103.878399,30 C107.649363,30 109.759307,27.3067332 109.759307,27.3067332 L110.208231,28.6982544 C110.342909,29.19202 110.657156,29.5511222 111.061188,29.5511222 L112.811992,29.5511222 C113.260917,29.5511222 113.664948,29.1471322 113.664948,28.6982544 L113.664948,0.85286783 C113.664948,0.403990025 113.260917,-6.92158993e-17 112.811992,-6.92158993e-17 L108.996136,-6.92158993e-17 C108.547211,-6.92158993e-17 108.14318,0.403990025 108.14318,0.85286783 L108.14318,11.9551122 C107.335116,11.6408978 105.943451,11.1471322 104.147753,11.1471322 C98.8055544,11.1471322 95.2590524,15.3216958 95.2590524,20.5735661 C95.2590524,25.7356608 98.9851241,30 103.878399,30 Z M100.466574,20.5735661 C100.466574,18.0598504 102.307164,15.9950125 104.82114,15.9950125 C107.065761,15.9950125 108.322749,17.0274314 108.322749,17.0274314 L108.322749,22.234414 C108.008502,23.3117207 106.931084,25.1521197 104.551785,25.1521197 C102.172487,25.1521197 100.466574,23.0872818 100.466574,20.5735661 C100.466574,20.5735661 100.466574,23.0872818 100.466574,20.5735661 Z M117.705267,20.5735661 C117.705267,25.7356608 121.521124,30 126.908215,30 C129.826223,30 132.115737,28.9226933 133.597187,27.5311721 C134.046111,27.1720698 133.956326,26.6783042 133.642079,26.3640898 L131.80149,24.2543641 C131.487243,23.8952618 131.083211,23.9850374 130.634287,24.2543641 C129.826223,24.8379052 128.524343,25.3765586 127.132677,25.3765586 C124.528916,25.3765586 122.957681,23.3117207 122.823004,21.4713217 L134.315466,21.4713217 C134.719498,21.4713217 135.12353,21.1571072 135.168422,20.7082294 C135.213314,20.394015 135.258207,19.8104738 135.258207,19.4962594 C135.258207,14.6483791 131.487243,11.1471322 126.863323,11.1471322 C121.521124,11.1471322 117.705267,15.5012469 117.705267,20.5735661 C117.705267,20.5735661 117.705267,15.5012469 117.705267,20.5735661 Z M123.227036,18.3291771 C123.451498,16.6234414 124.932948,15.276808 126.728645,15.276808 C128.434558,15.276808 129.871115,16.6683292 130.005793,18.3291771 C130.005793,18.3291771 129.871115,16.6683292 130.005793,18.3291771 L123.227036,18.3291771 Z M139.029171,28.6982544 C139.029171,29.1471322 139.433203,29.5511222 139.882127,29.5511222 L143.338844,29.5511222 C143.967338,29.5511222 144.37137,29.3266833 144.37137,28.6982544 L144.37137,17.8354115 C144.685617,17.2069825 145.763035,15.9950125 147.558733,15.9950125 C148.052549,15.9950125 148.725936,16.2194514 148.860613,16.2643392 C149.219752,16.4438903 149.668677,16.2643392 149.893139,15.8603491 L151.554159,12.9426434 C152.092868,11.8204489 150.207386,11.1471322 148.097442,11.1471322 C145.314111,11.1471322 143.653091,13.032419 143.024597,13.9301746 L142.396103,12.1795511 C142.261426,11.8204489 141.992071,11.59601 141.588039,11.59601 L139.882127,11.59601 C139.433203,11.59601 139.029171,11.9551122 139.029171,12.4488778 C139.029171,12.4488778 139.029171,11.9551122 139.029171,12.4488778 L139.029171,28.6982544 Z M154.337489,28.6982544 C154.337489,29.1471322 154.741521,29.5511222 155.190445,29.5511222 L158.916517,29.5511222 C159.365441,29.5511222 159.769473,29.1471322 159.769473,28.6982544 L159.769473,12.4488778 C159.769473,11.9551122 159.365441,11.59601 158.916517,11.59601 L155.190445,11.59601 C154.741521,11.59601 154.337489,11.9551122 154.337489,12.4488778 C154.337489,12.4488778 154.337489,11.9551122 154.337489,12.4488778 L154.337489,28.6982544 Z M166.099306,24.2094763 C166.099306,27.8453865 167.625648,30 171.082365,30 C173.282094,30 176.200102,28.967581 176.424565,28.8329177 C176.873489,28.6533666 177.097951,28.2044888 176.918381,27.755611 L176.020533,24.9276808 C175.885855,24.478803 175.526716,24.2543641 175.032899,24.4339152 C174.539082,24.6134663 173.596341,24.9276808 172.83317,24.9276808 C172.114891,24.9276808 171.441505,24.7481297 171.441505,23.4912718 L171.441505,16.3092269 L175.392039,16.3092269 C175.885855,16.3092269 176.244995,15.9052369 176.244995,15.4563591 L176.244995,12.4488778 C176.244995,11.9551122 175.885855,11.59601 175.392039,11.59601 L171.441505,11.59601 L171.441505,6.56857855 C171.441505,6.11970075 171.082365,5.71571072 170.633441,5.71571072 L166.952262,5.7605985 C166.503338,5.7605985 166.099306,6.16458853 166.099306,6.61346633 L166.099306,11.59601 L164.572963,11.59601 C164.124039,11.59601 163.764899,11.9551122 163.764899,12.4488778 L163.764899,15.4563591 C163.764899,15.9052369 164.124039,16.3092269 164.572963,16.3092269 L166.099306,16.3092269 L166.099306,24.2094763 Z" id="Considerit-Copy-9" fill="#454545"></path>
                    <ellipse id="Path-Copy-9" fill="#E24A7E" cx="156.898702" cy="33.5999999" rx="2.60026917" ry="2.5999999"></ellipse>
                </g>
                <path d="M14.5,152.5 L189.5,152.5" id="Line" stroke="#979797" stroke-linecap="square"></path>
                <polygon id="–" fill="#8F8F8F" points="4.44 152.432 0.36 152.432 0.36 151.748 4.44 151.748"></polygon>
                <polygon id="+" fill="#8F8F8F" points="202.356 152.004 205.056 152.004 205.056 152.724 202.356 152.724 202.356 155.424 201.636 155.424 201.636 152.724 198.936 152.724 198.936 152.004 201.636 152.004 201.636 149.304 202.356 149.304"></polygon>
                <circle id="Oval-216" fill="#EBD5AB" cx="185" cy="146" r="6"></circle>
                <circle id="Oval-216" fill="#ABC9EB" cx="175" cy="146" r="6"></circle>
                <circle id="Oval-216" fill="#ABD8EB" cx="181" cy="137" r="6"></circle>
                <circle id="Oval-216" fill="#ABB1EB" cx="170" cy="136" r="6"></circle>
                <circle id="Oval-216" fill="#EBABDA" cx="185" cy="127" r="6"></circle>
                <circle id="Oval-216" fill="#ABC9EB" cx="151" cy="146" r="6"></circle>
                <circle id="Oval-216" fill="#EBB8AB" cx="159" cy="139" r="6"></circle>
                <circle id="Oval-216" fill="#ABEBBA" cx="162" cy="146" r="6"></circle>
                <circle id="Oval-216" fill="#EBCEAB" cx="175" cy="127" r="6"></circle>
                <circle id="Oval-216" fill="#C6ABEB" cx="165" cy="126" r="6"></circle>
                <circle id="Oval-216" fill="#ABC9EB" cx="155" cy="126" r="6"></circle>
                <circle id="Oval-216" fill="#ABEBB8" cx="161" cy="117" r="6"></circle>
                <circle id="Oval-216" fill="#EBB7AB" cx="149" cy="136" r="6"></circle>
                <circle id="Oval-216" fill="#ACEBAB" cx="145" cy="126" r="6"></circle>
                <circle id="Oval-216" fill="#C0C0C1" cx="137" cy="136" r="6"></circle>
                <circle id="Oval-216" fill="#EBB3AB" cx="185" cy="116" r="6"></circle>
                <circle id="Oval-216" fill="#EBCBAB" cx="175" cy="116" r="6"></circle>
                <circle id="Oval-216" fill="#EBABE8" cx="181" cy="107" r="6"></circle>
                <circle id="Oval-216" fill="#ABEBE4" cx="167" cy="107" r="6"></circle>
                <circle id="Oval-216" fill="#BBABEB" cx="185" cy="97" r="6"></circle>
                <circle id="Oval-216" fill="#ABEBD7" cx="173" cy="98" r="6"></circle>
                <circle id="Oval-216" fill="#ABEBB0" cx="129" cy="146" r="6"></circle>
                <circle id="Oval-216" fill="#EBCAAB" cx="141" cy="146" r="6"></circle>
                <circle id="Oval-216" fill="#BAABEB" cx="119" cy="146" r="6"></circle>
                <circle id="Oval-216" fill="#EBB7AB" cx="43" cy="146" r="6"></circle>
                <path d="M125,143 C128.313708,143 131,140.313708 131,137 C131,133.686292 128.313708,131 125,131 C121.686292,131 119,133.686292 119,137 C119,140.313708 121.686292,143 125,143 Z" id="Oval-216" fill="#ABC9EB"></path>
                <circle id="Oval-216" fill="#DDABEB" cx="26" cy="146" r="6"></circle>
                <path d="M14.5,46.5 L189.5,46.5" id="Line" stroke="#454545" stroke-linecap="square"></path>
                <path d="M14.5,53.75 L189.5,53.75" id="Line" stroke="#454545" stroke-linecap="square"></path>
                <path d="M14.5,61 L189.5,61" id="Line" stroke="#454545" stroke-linecap="square"></path>
                <path d="M14.5,68.25 L189.5,68.25" id="Line" stroke="#454545" stroke-linecap="square"></path>
                <path d="M14.5,75.5 L189.5,75.5" id="Line" stroke="#454545" stroke-linecap="square"></path>
                <g id="Oval-216">
                    <use fill="black" fill-opacity="1" filter="url(#filter-2)" xlink:href="#path-1"></use>
                    <use fill="#2478CC" fill-rule="evenodd" xlink:href="#path-1"></use>
                </g>
                <path d="M107.103507,170 C106.383533,169.646747 105.407905,169.089603 104.876367,168.451758 C103.965955,167.359263 103.5,165 103.5,165 C103.5,165 101.836978,166.059181 100.830469,167.266992 C100.107781,168.134217 99.4792063,169.371286 99.1821725,170 L45.4929378,170 C40.2632506,170 36,174.253295 36,179.5 C36,184.747859 40.250133,189 45.4929378,189 L161.507062,189 C166.736749,189 171,184.746705 171,179.5 C171,174.252141 166.749867,170 161.507062,170 L107.103507,170 Z" id="Combined-Shape" fill="#2478CC"></path>
                <path d="M55.068,184 L54.12,184 L57.792,175.504 L58.632,175.504 L62.28,184 L61.32,184 L60.384,181.768 L55.992,181.768 L55.068,184 Z M56.316,180.976 L60.06,180.976 L58.188,176.464 L56.316,180.976 Z M68.1,183.052 C67.8599988,183.412002 67.5480019,183.683999 67.164,183.868 C66.7799981,184.052001 66.384002,184.144 65.976,184.144 C65.5359978,184.144 65.1380018,184.068001 64.782,183.916 C64.4259982,183.763999 64.1220013,183.556001 63.87,183.292 C63.6179987,183.027999 63.4220007,182.716002 63.282,182.356 C63.1419993,181.995998 63.072,181.608002 63.072,181.192 C63.072,180.775998 63.1419993,180.388002 63.282,180.028 C63.4220007,179.667998 63.6179987,179.356001 63.87,179.092 C64.1220013,178.827999 64.4259982,178.620001 64.782,178.468 C65.1380018,178.315999 65.5359978,178.24 65.976,178.24 C66.384002,178.24 66.7799981,178.333999 67.164,178.522 C67.5480019,178.710001 67.8599988,178.987998 68.1,179.356 L68.124,179.356 L68.124,174.928 L68.94,174.928 L68.94,184 L68.124,184 L68.124,183.052 L68.1,183.052 Z M63.936,181.192 C63.936,181.504002 63.9839995,181.797999 64.08,182.074 C64.1760005,182.350001 64.3139991,182.589999 64.494,182.794 C64.6740009,182.998001 64.8959987,183.157999 65.16,183.274 C65.4240013,183.390001 65.7239983,183.448 66.06,183.448 C66.3720016,183.448 66.6599987,183.390001 66.924,183.274 C67.1880013,183.157999 67.415999,183.000001 67.608,182.8 C67.800001,182.599999 67.9499995,182.362001 68.058,182.086 C68.1660005,181.809999 68.22,181.512002 68.22,181.192 C68.22,180.871998 68.1660005,180.574001 68.058,180.298 C67.9499995,180.021999 67.800001,179.782001 67.608,179.578 C67.415999,179.373999 67.1880013,179.214001 66.924,179.098 C66.6599987,178.981999 66.3720016,178.924 66.06,178.924 C65.7239983,178.924 65.4240013,178.983999 65.16,179.104 C64.8959987,179.224001 64.6740009,179.385999 64.494,179.59 C64.3139991,179.794001 64.1760005,180.033999 64.08,180.31 C63.9839995,180.586001 63.936,180.879998 63.936,181.192 L63.936,181.192 Z M75.744,183.052 C75.5039988,183.412002 75.1920019,183.683999 74.808,183.868 C74.4239981,184.052001 74.028002,184.144 73.62,184.144 C73.1799978,184.144 72.7820018,184.068001 72.426,183.916 C72.0699982,183.763999 71.7660013,183.556001 71.514,183.292 C71.2619987,183.027999 71.0660007,182.716002 70.926,182.356 C70.7859993,181.995998 70.716,181.608002 70.716,181.192 C70.716,180.775998 70.7859993,180.388002 70.926,180.028 C71.0660007,179.667998 71.2619987,179.356001 71.514,179.092 C71.7660013,178.827999 72.0699982,178.620001 72.426,178.468 C72.7820018,178.315999 73.1799978,178.24 73.62,178.24 C74.028002,178.24 74.4239981,178.333999 74.808,178.522 C75.1920019,178.710001 75.5039988,178.987998 75.744,179.356 L75.768,179.356 L75.768,174.928 L76.584,174.928 L76.584,184 L75.768,184 L75.768,183.052 L75.744,183.052 Z M71.58,181.192 C71.58,181.504002 71.6279995,181.797999 71.724,182.074 C71.8200005,182.350001 71.9579991,182.589999 72.138,182.794 C72.3180009,182.998001 72.5399987,183.157999 72.804,183.274 C73.0680013,183.390001 73.3679983,183.448 73.704,183.448 C74.0160016,183.448 74.3039987,183.390001 74.568,183.274 C74.8320013,183.157999 75.059999,183.000001 75.252,182.8 C75.444001,182.599999 75.5939995,182.362001 75.702,182.086 C75.8100005,181.809999 75.864,181.512002 75.864,181.192 C75.864,180.871998 75.8100005,180.574001 75.702,180.298 C75.5939995,180.021999 75.444001,179.782001 75.252,179.578 C75.059999,179.373999 74.8320013,179.214001 74.568,179.098 C74.3039987,178.981999 74.0160016,178.924 73.704,178.924 C73.3679983,178.924 73.0680013,178.983999 72.804,179.104 C72.5399987,179.224001 72.3180009,179.385999 72.138,179.59 C71.9579991,179.794001 71.8200005,180.033999 71.724,180.31 C71.6279995,180.586001 71.58,180.879998 71.58,181.192 L71.58,181.192 Z M83.7,183.124 L83.724,183.124 L85.464,178.384 L86.352,178.384 L83.556,185.452 C83.3879992,185.884002 83.1740013,186.229999 82.914,186.49 C82.6539987,186.750001 82.2800024,186.88 81.792,186.88 C81.5439988,186.88 81.3000012,186.856 81.06,186.808 L81.144,186.064 C81.336001,186.128 81.535999,186.16 81.744,186.16 C82.0240014,186.16 82.2439992,186.074001 82.404,185.902 C82.5640008,185.729999 82.7039994,185.484002 82.824,185.164 L83.28,183.988 L80.88,178.384 L81.792,178.384 L83.7,183.124 Z M93.204,181.192 C93.204,181.616002 93.1300007,182.007998 92.982,182.368 C92.8339993,182.728002 92.6280013,183.039999 92.364,183.304 C92.0999987,183.568001 91.7840018,183.773999 91.416,183.922 C91.0479982,184.070001 90.6440022,184.144 90.204,184.144 C89.7719978,184.144 89.3720018,184.070001 89.004,183.922 C88.6359982,183.773999 88.3200013,183.568001 88.056,183.304 C87.7919987,183.039999 87.5860007,182.728002 87.438,182.368 C87.2899993,182.007998 87.216,181.616002 87.216,181.192 C87.216,180.767998 87.2899993,180.376002 87.438,180.016 C87.5860007,179.655998 87.7919987,179.344001 88.056,179.08 C88.3200013,178.815999 88.6359982,178.610001 89.004,178.462 C89.3720018,178.313999 89.7719978,178.24 90.204,178.24 C90.6440022,178.24 91.0479982,178.313999 91.416,178.462 C91.7840018,178.610001 92.0999987,178.815999 92.364,179.08 C92.6280013,179.344001 92.8339993,179.655998 92.982,180.016 C93.1300007,180.376002 93.204,180.767998 93.204,181.192 L93.204,181.192 Z M92.34,181.192 C92.34,180.879998 92.2900005,180.586001 92.19,180.31 C92.0899995,180.033999 91.9480009,179.794001 91.764,179.59 C91.5799991,179.385999 91.3560013,179.224001 91.092,179.104 C90.8279987,178.983999 90.5320016,178.924 90.204,178.924 C89.8759984,178.924 89.5820013,178.983999 89.322,179.104 C89.0619987,179.224001 88.8400009,179.385999 88.656,179.59 C88.4719991,179.794001 88.3300005,180.033999 88.23,180.31 C88.1299995,180.586001 88.08,180.879998 88.08,181.192 C88.08,181.504002 88.1299995,181.797999 88.23,182.074 C88.3300005,182.350001 88.4719991,182.589999 88.656,182.794 C88.8400009,182.998001 89.0619987,183.157999 89.322,183.274 C89.5820013,183.390001 89.8759984,183.448 90.204,183.448 C90.5320016,183.448 90.8279987,183.390001 91.092,183.274 C91.3560013,183.157999 91.5799991,182.998001 91.764,182.794 C91.9480009,182.589999 92.0899995,182.350001 92.19,182.074 C92.2900005,181.797999 92.34,181.504002 92.34,181.192 L92.34,181.192 Z M99.036,184 C99.0199999,183.847999 99.008,183.680001 99,183.496 C98.992,183.311999 98.988,183.160001 98.988,183.04 L98.964,183.04 C98.8039992,183.368002 98.5440018,183.633999 98.184,183.838 C97.8239982,184.042001 97.444002,184.144 97.044,184.144 C96.3319964,184.144 95.7980018,183.932002 95.442,183.508 C95.0859982,183.083998 94.908,182.524003 94.908,181.828 L94.908,178.384 L95.724,178.384 L95.724,181.492 C95.724,181.788001 95.7479998,182.055999 95.796,182.296 C95.8440002,182.536001 95.9259994,182.741999 96.042,182.914 C96.1580006,183.086001 96.313999,183.22 96.51,183.316 C96.706001,183.412 96.9519985,183.46 97.248,183.46 C97.4640011,183.46 97.673999,183.416 97.878,183.328 C98.082001,183.24 98.2639992,183.106001 98.424,182.926 C98.5840008,182.745999 98.7119995,182.518001 98.808,182.242 C98.9040005,181.965999 98.952,181.640002 98.952,181.264 L98.952,178.384 L99.768,178.384 L99.768,182.764 C99.768,182.916001 99.772,183.111999 99.78,183.352 C99.788,183.592001 99.7999999,183.807999 99.816,184 L99.036,184 Z M101.928,179.62 C101.928,179.467999 101.924,179.272001 101.916,179.032 C101.908,178.791999 101.896,178.576001 101.88,178.384 L102.66,178.384 C102.676,178.536001 102.688,178.703999 102.696,178.888 C102.704,179.072001 102.708,179.223999 102.708,179.344 L102.732,179.344 C102.892001,179.015998 103.131998,178.750001 103.452,178.546 C103.772002,178.341999 104.131998,178.24 104.532,178.24 C104.636001,178.24 104.73,178.244 104.814,178.252 C104.898,178.26 104.984,178.276 105.072,178.3 L104.964,179.068 C104.916,179.052 104.836001,179.036 104.724,179.02 C104.611999,179.004 104.500001,178.996 104.388,178.996 C104.171999,178.996 103.964001,179.036 103.764,179.116 C103.563999,179.196 103.390001,179.321999 103.242,179.494 C103.093999,179.666001 102.974,179.885999 102.882,180.154 C102.79,180.422001 102.744,180.743998 102.744,181.12 L102.744,184 L101.928,184 L101.928,179.62 Z M114.828,181.192 C114.828,181.616002 114.754001,182.007998 114.606,182.368 C114.457999,182.728002 114.252001,183.039999 113.988,183.304 C113.723999,183.568001 113.408002,183.773999 113.04,183.922 C112.671998,184.070001 112.268002,184.144 111.828,184.144 C111.395998,184.144 110.996002,184.070001 110.628,183.922 C110.259998,183.773999 109.944001,183.568001 109.68,183.304 C109.415999,183.039999 109.210001,182.728002 109.062,182.368 C108.913999,182.007998 108.84,181.616002 108.84,181.192 C108.84,180.767998 108.913999,180.376002 109.062,180.016 C109.210001,179.655998 109.415999,179.344001 109.68,179.08 C109.944001,178.815999 110.259998,178.610001 110.628,178.462 C110.996002,178.313999 111.395998,178.24 111.828,178.24 C112.268002,178.24 112.671998,178.313999 113.04,178.462 C113.408002,178.610001 113.723999,178.815999 113.988,179.08 C114.252001,179.344001 114.457999,179.655998 114.606,180.016 C114.754001,180.376002 114.828,180.767998 114.828,181.192 L114.828,181.192 Z M113.964,181.192 C113.964,180.879998 113.914,180.586001 113.814,180.31 C113.713999,180.033999 113.572001,179.794001 113.388,179.59 C113.203999,179.385999 112.980001,179.224001 112.716,179.104 C112.451999,178.983999 112.156002,178.924 111.828,178.924 C111.499998,178.924 111.206001,178.983999 110.946,179.104 C110.685999,179.224001 110.464001,179.385999 110.28,179.59 C110.095999,179.794001 109.954,180.033999 109.854,180.31 C109.753999,180.586001 109.704,180.879998 109.704,181.192 C109.704,181.504002 109.753999,181.797999 109.854,182.074 C109.954,182.350001 110.095999,182.589999 110.28,182.794 C110.464001,182.998001 110.685999,183.157999 110.946,183.274 C111.206001,183.390001 111.499998,183.448 111.828,183.448 C112.156002,183.448 112.451999,183.390001 112.716,183.274 C112.980001,183.157999 113.203999,182.998001 113.388,182.794 C113.572001,182.589999 113.713999,182.350001 113.814,182.074 C113.914,181.797999 113.964,181.504002 113.964,181.192 L113.964,181.192 Z M117.396,186.88 L116.58,186.88 L116.58,178.384 L117.396,178.384 L117.396,179.356 L117.432,179.356 C117.664001,178.987998 117.973998,178.710001 118.362,178.522 C118.750002,178.333999 119.143998,178.24 119.544,178.24 C119.984002,178.24 120.381998,178.315999 120.738,178.468 C121.094002,178.620001 121.397999,178.827999 121.65,179.092 C121.902001,179.356001 122.097999,179.667998 122.238,180.028 C122.378001,180.388002 122.448,180.775998 122.448,181.192 C122.448,181.608002 122.378001,181.995998 122.238,182.356 C122.097999,182.716002 121.902001,183.027999 121.65,183.292 C121.397999,183.556001 121.094002,183.763999 120.738,183.916 C120.381998,184.068001 119.984002,184.144 119.544,184.144 C119.143998,184.144 118.750002,184.050001 118.362,183.862 C117.973998,183.673999 117.664001,183.404002 117.432,183.052 L117.396,183.052 L117.396,186.88 Z M121.584,181.192 C121.584,180.879998 121.536,180.586001 121.44,180.31 C121.344,180.033999 121.206001,179.794001 121.026,179.59 C120.845999,179.385999 120.624001,179.224001 120.36,179.104 C120.095999,178.983999 119.796002,178.924 119.46,178.924 C119.147998,178.924 118.860001,178.981999 118.596,179.098 C118.331999,179.214001 118.104001,179.373999 117.912,179.578 C117.719999,179.782001 117.570001,180.021999 117.462,180.298 C117.353999,180.574001 117.3,180.871998 117.3,181.192 C117.3,181.512002 117.353999,181.809999 117.462,182.086 C117.570001,182.362001 117.719999,182.599999 117.912,182.8 C118.104001,183.000001 118.331999,183.157999 118.596,183.274 C118.860001,183.390001 119.147998,183.448 119.46,183.448 C119.796002,183.448 120.095999,183.390001 120.36,183.274 C120.624001,183.157999 120.845999,182.998001 121.026,182.794 C121.206001,182.589999 121.344,182.350001 121.44,182.074 C121.536,181.797999 121.584,181.504002 121.584,181.192 L121.584,181.192 Z M125.028,184 L124.212,184 L124.212,178.384 L125.028,178.384 L125.028,184 Z M125.196,176.224 C125.196,176.392001 125.136001,176.529999 125.016,176.638 C124.895999,176.746001 124.764001,176.8 124.62,176.8 C124.475999,176.8 124.344001,176.746001 124.224,176.638 C124.103999,176.529999 124.044,176.392001 124.044,176.224 C124.044,176.055999 124.103999,175.918001 124.224,175.81 C124.344001,175.701999 124.475999,175.648 124.62,175.648 C124.764001,175.648 124.895999,175.701999 125.016,175.81 C125.136001,175.918001 125.196,176.055999 125.196,176.224 L125.196,176.224 Z M127.932,178.384 C127.948,178.536001 127.96,178.703999 127.968,178.888 C127.976,179.072001 127.98,179.223999 127.98,179.344 L128.004,179.344 C128.164001,179.015998 128.423998,178.750001 128.784,178.546 C129.144002,178.341999 129.523998,178.24 129.924,178.24 C130.636004,178.24 131.169998,178.451998 131.526,178.876 C131.882002,179.300002 132.06,179.859997 132.06,180.556 L132.06,184 L131.244,184 L131.244,180.892 C131.244,180.595999 131.22,180.328001 131.172,180.088 C131.124,179.847999 131.042001,179.642001 130.926,179.47 C130.809999,179.297999 130.654001,179.164 130.458,179.068 C130.261999,178.972 130.016001,178.924 129.72,178.924 C129.503999,178.924 129.294001,178.968 129.09,179.056 C128.885999,179.144 128.704001,179.277999 128.544,179.458 C128.383999,179.638001 128.256,179.865999 128.16,180.142 C128.064,180.418001 128.016,180.743998 128.016,181.12 L128.016,184 L127.2,184 L127.2,179.62 C127.2,179.467999 127.196,179.272001 127.188,179.032 C127.18,178.791999 127.168,178.576001 127.152,178.384 L127.932,178.384 Z M135,184 L134.184,184 L134.184,178.384 L135,178.384 L135,184 Z M135.168,176.224 C135.168,176.392001 135.108001,176.529999 134.988,176.638 C134.867999,176.746001 134.736001,176.8 134.592,176.8 C134.447999,176.8 134.316001,176.746001 134.196,176.638 C134.075999,176.529999 134.016,176.392001 134.016,176.224 C134.016,176.055999 134.075999,175.918001 134.196,175.81 C134.316001,175.701999 134.447999,175.648 134.592,175.648 C134.736001,175.648 134.867999,175.701999 134.988,175.81 C135.108001,175.918001 135.168,176.055999 135.168,176.224 L135.168,176.224 Z M142.752,181.192 C142.752,181.616002 142.678001,182.007998 142.53,182.368 C142.381999,182.728002 142.176001,183.039999 141.912,183.304 C141.647999,183.568001 141.332002,183.773999 140.964,183.922 C140.595998,184.070001 140.192002,184.144 139.752,184.144 C139.319998,184.144 138.920002,184.070001 138.552,183.922 C138.183998,183.773999 137.868001,183.568001 137.604,183.304 C137.339999,183.039999 137.134001,182.728002 136.986,182.368 C136.837999,182.007998 136.764,181.616002 136.764,181.192 C136.764,180.767998 136.837999,180.376002 136.986,180.016 C137.134001,179.655998 137.339999,179.344001 137.604,179.08 C137.868001,178.815999 138.183998,178.610001 138.552,178.462 C138.920002,178.313999 139.319998,178.24 139.752,178.24 C140.192002,178.24 140.595998,178.313999 140.964,178.462 C141.332002,178.610001 141.647999,178.815999 141.912,179.08 C142.176001,179.344001 142.381999,179.655998 142.53,180.016 C142.678001,180.376002 142.752,180.767998 142.752,181.192 L142.752,181.192 Z M141.888,181.192 C141.888,180.879998 141.838,180.586001 141.738,180.31 C141.637999,180.033999 141.496001,179.794001 141.312,179.59 C141.127999,179.385999 140.904001,179.224001 140.64,179.104 C140.375999,178.983999 140.080002,178.924 139.752,178.924 C139.423998,178.924 139.130001,178.983999 138.87,179.104 C138.609999,179.224001 138.388001,179.385999 138.204,179.59 C138.019999,179.794001 137.878,180.033999 137.778,180.31 C137.677999,180.586001 137.628,180.879998 137.628,181.192 C137.628,181.504002 137.677999,181.797999 137.778,182.074 C137.878,182.350001 138.019999,182.589999 138.204,182.794 C138.388001,182.998001 138.609999,183.157999 138.87,183.274 C139.130001,183.390001 139.423998,183.448 139.752,183.448 C140.080002,183.448 140.375999,183.390001 140.64,183.274 C140.904001,183.157999 141.127999,182.998001 141.312,182.794 C141.496001,182.589999 141.637999,182.350001 141.738,182.074 C141.838,181.797999 141.888,181.504002 141.888,181.192 L141.888,181.192 Z M145.236,178.384 C145.252,178.536001 145.264,178.703999 145.272,178.888 C145.28,179.072001 145.284,179.223999 145.284,179.344 L145.308,179.344 C145.468001,179.015998 145.727998,178.750001 146.088,178.546 C146.448002,178.341999 146.827998,178.24 147.228,178.24 C147.940004,178.24 148.473998,178.451998 148.83,178.876 C149.186002,179.300002 149.364,179.859997 149.364,180.556 L149.364,184 L148.548,184 L148.548,180.892 C148.548,180.595999 148.524,180.328001 148.476,180.088 C148.428,179.847999 148.346001,179.642001 148.23,179.47 C148.113999,179.297999 147.958001,179.164 147.762,179.068 C147.565999,178.972 147.320001,178.924 147.024,178.924 C146.807999,178.924 146.598001,178.968 146.394,179.056 C146.189999,179.144 146.008001,179.277999 145.848,179.458 C145.687999,179.638001 145.56,179.865999 145.464,180.142 C145.368,180.418001 145.32,180.743998 145.32,181.12 L145.32,184 L144.504,184 L144.504,179.62 C144.504,179.467999 144.5,179.272001 144.492,179.032 C144.484,178.791999 144.472,178.576001 144.456,178.384 L145.236,178.384 Z" id="Add-your-opinion" fill="#FFFFFF"></path>
            </g>
        </g>
    </g>
</svg>